<svg width="423" height="144" viewBox="0 0 423 144" fill="none" xmlns="http://www.w3.org/2000/svg">
<path d="M59.4941 82H11.4287C10.6722 82 9.96973 81.8649 9.32129 81.5947C8.67285 81.3245 8.10547 80.9598 7.61914 80.5005C7.15983 80.0142 6.79508 79.4468 6.5249 78.7983C6.25472 78.1499 6.11963 77.4474 6.11963 76.6909V23.8838H16.6567V71.4629H59.4941V82ZM77.853 82H67.3159V23.8838H77.853V82ZM148.168 69.2339C148.168 70.5308 147.938 71.9222 147.479 73.4082C147.047 74.8942 146.317 76.2721 145.291 77.542C144.291 78.8118 142.98 79.8791 141.359 80.7437C139.738 81.5812 137.752 82 135.402 82H95.4014C94.6449 82 93.9424 81.8649 93.2939 81.5947C92.6455 81.3245 92.0781 80.9598 91.5918 80.5005C91.1325 80.0142 90.7677 79.4468 90.4976 78.7983C90.2274 78.1499 90.0923 77.4474 90.0923 76.6909V29.1929C90.0923 28.4634 90.2274 27.7744 90.4976 27.126C90.7677 26.4775 91.1325 25.9102 91.5918 25.4238C92.0781 24.9375 92.6455 24.5592 93.2939 24.2891C93.9424 24.0189 94.6449 23.8838 95.4014 23.8838H130.66C131.957 23.8838 133.348 24.1134 134.834 24.5728C136.32 25.0321 137.698 25.7751 138.968 26.8018C140.265 27.8014 141.332 29.1118 142.17 30.7329C143.035 32.354 143.467 34.3398 143.467 36.6904V38.6763C143.467 40.5405 143.156 42.5534 142.535 44.7148C141.913 46.8493 140.914 48.8757 139.536 50.7939C140.724 51.5234 141.832 52.4015 142.859 53.4282C143.913 54.4549 144.831 55.6437 145.615 56.9946C146.398 58.3455 147.02 59.8721 147.479 61.5742C147.938 63.2764 148.168 65.1541 148.168 67.2075V69.2339ZM137.631 67.2075C137.631 65.8296 137.415 64.6003 136.982 63.5195C136.55 62.4118 135.942 61.4661 135.159 60.6826C134.375 59.8991 133.43 59.3047 132.322 58.8994C131.214 58.4671 129.971 58.251 128.593 58.251H104.844V47.6328H123.852C125.229 47.6328 126.472 47.4302 127.58 47.0249C128.688 46.5926 129.633 45.9847 130.417 45.2012C131.201 44.4176 131.795 43.4855 132.2 42.4048C132.632 41.297 132.849 40.0542 132.849 38.6763V36.6904C132.849 35.1774 132.119 34.4209 130.66 34.4209H100.629V71.4629H135.402C135.591 71.4629 135.821 71.4494 136.091 71.4224C136.361 71.3953 136.604 71.3143 136.82 71.1792C137.036 71.0441 137.226 70.8145 137.388 70.4902C137.55 70.166 137.631 69.7202 137.631 69.1528V67.2075ZM215.443 43.418C215.443 45.8226 215.146 47.9705 214.552 49.8618C213.957 51.7531 213.147 53.4282 212.12 54.8872C211.12 56.3192 209.959 57.5485 208.635 58.5752C207.311 59.6019 205.919 60.453 204.46 61.1284C203.028 61.7769 201.569 62.2497 200.083 62.5469C198.625 62.8441 197.247 62.9927 195.95 62.9927L217.956 82H201.664L179.698 62.9927H172.12V52.4556H195.95C197.274 52.3475 198.476 52.0773 199.557 51.645C200.664 51.1857 201.61 50.5778 202.394 49.8213C203.204 49.0648 203.826 48.1597 204.258 47.106C204.69 46.0252 204.906 44.7959 204.906 43.418V36.7715C204.906 36.1771 204.825 35.7313 204.663 35.4341C204.528 35.1099 204.339 34.8802 204.096 34.7451C203.88 34.583 203.636 34.4884 203.366 34.4614C203.123 34.4344 202.893 34.4209 202.677 34.4209H167.905V82H157.368V29.1929C157.368 28.4634 157.503 27.7744 157.773 27.126C158.043 26.4775 158.408 25.9102 158.867 25.4238C159.354 24.9375 159.921 24.5592 160.569 24.2891C161.218 24.0189 161.92 23.8838 162.677 23.8838H202.677C205.028 23.8838 207.014 24.3161 208.635 25.1807C210.256 26.0182 211.566 27.0854 212.566 28.3823C213.593 29.6522 214.322 31.0301 214.754 32.5161C215.214 34.0021 215.443 35.3936 215.443 36.6904V43.418ZM283.043 82H272.506V67.7344H235.464V82H224.927V52.9419C224.927 48.7 225.656 44.7959 227.115 41.2295C228.574 37.6631 230.601 34.5965 233.194 32.0298C235.788 29.4631 238.855 27.4637 242.394 26.0317C245.933 24.5998 249.797 23.8838 253.985 23.8838H277.734C278.463 23.8838 279.152 24.0189 279.801 24.2891C280.449 24.5592 281.017 24.9375 281.503 25.4238C281.989 25.9102 282.368 26.4775 282.638 27.126C282.908 27.7744 283.043 28.4634 283.043 29.1929V82ZM235.464 57.1973H272.506V34.4209H253.985C253.661 34.4209 252.972 34.4749 251.918 34.583C250.891 34.6641 249.689 34.8937 248.311 35.272C246.96 35.6502 245.528 36.2311 244.015 37.0146C242.502 37.7982 241.111 38.8789 239.841 40.2568C238.571 41.6348 237.517 43.3639 236.68 45.4443C235.869 47.4977 235.464 49.9969 235.464 52.9419V57.1973ZM353.398 43.418C353.398 45.8226 353.101 47.9705 352.507 49.8618C351.912 51.7531 351.102 53.4282 350.075 54.8872C349.076 56.3192 347.914 57.5485 346.59 58.5752C345.266 59.6019 343.875 60.453 342.416 61.1284C340.984 61.7769 339.525 62.2497 338.039 62.5469C336.58 62.8441 335.202 62.9927 333.905 62.9927L355.911 82H339.619L317.653 62.9927H310.075V52.4556H333.905C335.229 52.3475 336.431 52.0773 337.512 51.645C338.619 51.1857 339.565 50.5778 340.349 49.8213C341.159 49.0648 341.781 48.1597 342.213 47.106C342.645 46.0252 342.861 44.7959 342.861 43.418V36.7715C342.861 36.1771 342.78 35.7313 342.618 35.4341C342.483 35.1099 342.294 34.8802 342.051 34.7451C341.835 34.583 341.591 34.4884 341.321 34.4614C341.078 34.4344 340.848 34.4209 340.632 34.4209H305.86V82H295.323V29.1929C295.323 28.4634 295.458 27.7744 295.728 27.126C295.998 26.4775 296.363 25.9102 296.822 25.4238C297.309 24.9375 297.876 24.5592 298.524 24.2891C299.173 24.0189 299.875 23.8838 300.632 23.8838H340.632C342.983 23.8838 344.969 24.3161 346.59 25.1807C348.211 26.0182 349.521 27.0854 350.521 28.3823C351.548 29.6522 352.277 31.0301 352.709 32.5161C353.169 34.0021 353.398 35.3936 353.398 36.6904V43.418ZM419.336 43.3369C419.336 45.7415 419.026 47.8895 418.404 49.7808C417.81 51.672 417.013 53.3472 416.013 54.8062C415.014 56.2381 413.838 57.4674 412.487 58.4941C411.163 59.5208 409.785 60.3719 408.354 61.0474C406.922 61.6958 405.463 62.1686 403.977 62.4658C402.518 62.763 401.14 62.9116 399.843 62.9116H395.587V82H384.969V62.9116H380.754C379.458 62.9116 378.066 62.763 376.58 62.4658C375.121 62.1686 373.662 61.6958 372.203 61.0474C370.771 60.3719 369.393 59.5208 368.069 58.4941C366.745 57.4674 365.57 56.2381 364.543 54.8062C363.544 53.3472 362.733 51.672 362.112 49.7808C361.517 47.8625 361.22 45.7145 361.22 43.3369V23.8838H371.757V43.3369C371.757 44.7148 371.973 45.9577 372.406 47.0654C372.838 48.1462 373.446 49.0783 374.229 49.8618C375.013 50.6453 375.959 51.2533 377.066 51.6855C378.201 52.0908 379.458 52.2935 380.835 52.2935H399.843C400.842 52.1313 401.869 51.9287 402.923 51.6855C403.977 51.4154 404.936 50.9696 405.8 50.3481C406.665 49.7267 407.381 48.8621 407.948 47.7544C408.516 46.6466 408.799 45.1742 408.799 43.3369V23.8838H419.336V43.3369Z" fill="#141414"/>
<path d="M71.1738 131.386C71.1738 131.854 71.0908 132.357 70.9248 132.895C70.7686 133.432 70.5049 133.93 70.1338 134.389C69.7725 134.848 69.2988 135.233 68.7129 135.546C68.127 135.849 67.4092 136 66.5596 136H52.1016C51.8281 136 51.5742 135.951 51.3398 135.854C51.1055 135.756 50.9004 135.624 50.7246 135.458C50.5586 135.282 50.4268 135.077 50.3291 134.843C50.2314 134.608 50.1826 134.354 50.1826 134.081V116.913C50.1826 116.649 50.2314 116.4 50.3291 116.166C50.4268 115.932 50.5586 115.727 50.7246 115.551C50.9004 115.375 51.1055 115.238 51.3398 115.141C51.5742 115.043 51.8281 114.994 52.1016 114.994H64.8457C65.3145 114.994 65.8174 115.077 66.3545 115.243C66.8916 115.409 67.3896 115.678 67.8486 116.049C68.3174 116.41 68.7031 116.884 69.0059 117.47C69.3184 118.056 69.4746 118.773 69.4746 119.623V120.341C69.4746 121.015 69.3623 121.742 69.1377 122.523C68.9131 123.295 68.5518 124.027 68.0537 124.721C68.4834 124.984 68.8838 125.302 69.2549 125.673C69.6357 126.044 69.9678 126.474 70.251 126.962C70.5342 127.45 70.7588 128.002 70.9248 128.617C71.0908 129.232 71.1738 129.911 71.1738 130.653V131.386ZM67.3652 130.653C67.3652 130.155 67.2871 129.711 67.1309 129.32C66.9746 128.92 66.7549 128.578 66.4717 128.295C66.1885 128.012 65.8467 127.797 65.4463 127.65C65.0459 127.494 64.5967 127.416 64.0986 127.416H55.5146V123.578H62.3848C62.8828 123.578 63.332 123.505 63.7324 123.358C64.1328 123.202 64.4746 122.982 64.7578 122.699C65.041 122.416 65.2559 122.079 65.4023 121.688C65.5586 121.288 65.6367 120.839 65.6367 120.341V119.623C65.6367 119.076 65.373 118.803 64.8457 118.803H53.9912V132.191H66.5596C66.6279 132.191 66.7109 132.187 66.8086 132.177C66.9062 132.167 66.9941 132.138 67.0723 132.089C67.1504 132.04 67.2188 131.957 67.2773 131.84C67.3359 131.723 67.3652 131.562 67.3652 131.356V130.653ZM91.3008 130.653C91.3008 131.308 91.2178 131.898 91.0518 132.426C90.8857 132.943 90.666 133.402 90.3926 133.803C90.1191 134.193 89.8018 134.53 89.4404 134.813C89.0791 135.087 88.6982 135.312 88.2979 135.487C87.9072 135.663 87.5068 135.795 87.0967 135.883C86.6963 135.961 86.3154 136 85.9541 136H79.084C78.5566 136 77.9805 135.907 77.3555 135.722C76.7305 135.536 76.1494 135.233 75.6123 134.813C75.085 134.384 74.6406 133.832 74.2793 133.158C73.9277 132.475 73.752 131.64 73.752 130.653V125.497C73.752 124.521 73.9277 123.695 74.2793 123.021C74.6406 122.338 75.085 121.786 75.6123 121.366C76.1494 120.937 76.7305 120.629 77.3555 120.443C77.9805 120.258 78.5566 120.165 79.084 120.165H85.9541C86.9307 120.165 87.7607 120.341 88.4443 120.692C89.1279 121.044 89.6797 121.488 90.0996 122.025C90.5195 122.553 90.8223 123.129 91.0078 123.754C91.2031 124.379 91.3008 124.96 91.3008 125.497V130.653ZM87.4922 125.526C87.4922 124.999 87.3604 124.608 87.0967 124.354C86.833 124.101 86.4521 123.974 85.9541 123.974H79.1133C78.6055 123.974 78.2197 124.105 77.9561 124.369C77.6924 124.623 77.5605 124.999 77.5605 125.497V130.653C77.5605 131.151 77.6924 131.532 77.9561 131.796C78.2197 132.06 78.6055 132.191 79.1133 132.191H85.9541C86.4717 132.191 86.8574 132.06 87.1113 131.796C87.3652 131.532 87.4922 131.151 87.4922 130.653V125.526ZM111.779 130.653C111.779 131.308 111.696 131.898 111.53 132.426C111.364 132.943 111.145 133.402 110.871 133.803C110.598 134.193 110.28 134.53 109.919 134.813C109.558 135.087 109.177 135.312 108.776 135.487C108.386 135.663 107.985 135.795 107.575 135.883C107.175 135.961 106.794 136 106.433 136H99.5625C99.0352 136 98.459 135.907 97.834 135.722C97.209 135.536 96.6279 135.233 96.0908 134.813C95.5635 134.384 95.1191 133.832 94.7578 133.158C94.4062 132.475 94.2305 131.64 94.2305 130.653V125.497C94.2305 124.521 94.4062 123.695 94.7578 123.021C95.1191 122.338 95.5635 121.786 96.0908 121.366C96.6279 120.937 97.209 120.629 97.834 120.443C98.459 120.258 99.0352 120.165 99.5625 120.165H106.433C107.409 120.165 108.239 120.341 108.923 120.692C109.606 121.044 110.158 121.488 110.578 122.025C110.998 122.553 111.301 123.129 111.486 123.754C111.682 124.379 111.779 124.96 111.779 125.497V130.653ZM107.971 125.526C107.971 124.999 107.839 124.608 107.575 124.354C107.312 124.101 106.931 123.974 106.433 123.974H99.5918C99.084 123.974 98.6982 124.105 98.4346 124.369C98.1709 124.623 98.0391 124.999 98.0391 125.497V130.653C98.0391 131.151 98.1709 131.532 98.4346 131.796C98.6982 132.06 99.084 132.191 99.5918 132.191H106.433C106.95 132.191 107.336 132.06 107.59 131.796C107.844 131.532 107.971 131.151 107.971 130.653V125.526ZM133.635 136H128.142L120.466 128.588C120.036 128.197 119.836 127.709 119.865 127.123C119.885 126.85 119.953 126.596 120.07 126.361C120.197 126.117 120.368 125.912 120.583 125.746L127.541 120.136H133.635L124.67 127.357L133.635 136ZM118.898 136H115.09V113.471H118.898V136ZM151.081 130.653C151.081 131.308 150.998 131.898 150.832 132.426C150.666 132.943 150.446 133.402 150.173 133.803C149.899 134.193 149.582 134.53 149.221 134.813C148.859 135.087 148.479 135.312 148.078 135.487C147.688 135.663 147.287 135.795 146.877 135.883C146.477 135.961 146.096 136 145.734 136H135.422V132.191H145.705C146.223 132.191 146.613 132.06 146.877 131.796C147.141 131.532 147.272 131.151 147.272 130.653C147.224 129.638 146.711 129.13 145.734 129.13H139.831C138.991 129.13 138.278 128.983 137.692 128.69C137.106 128.397 136.628 128.031 136.257 127.592C135.896 127.152 135.632 126.679 135.466 126.171C135.31 125.663 135.231 125.189 135.231 124.75C135.231 123.9 135.383 123.188 135.686 122.611C135.988 122.025 136.369 121.552 136.828 121.19C137.287 120.829 137.785 120.57 138.322 120.414C138.859 120.248 139.362 120.165 139.831 120.165H149.191V123.974H139.86C139.665 123.974 139.509 123.998 139.392 124.047C139.284 124.086 139.201 124.145 139.143 124.223C139.094 124.291 139.064 124.369 139.055 124.457C139.045 124.535 139.04 124.613 139.04 124.691C139.05 124.848 139.079 124.97 139.128 125.058C139.177 125.146 139.235 125.209 139.304 125.248C139.382 125.287 139.465 125.312 139.553 125.321C139.65 125.321 139.743 125.321 139.831 125.321H145.734C146.711 125.321 147.541 125.497 148.225 125.849C148.908 126.2 149.46 126.645 149.88 127.182C150.3 127.709 150.603 128.285 150.788 128.91C150.983 129.535 151.081 130.116 151.081 130.653ZM179.719 130.756C179.719 131.283 179.626 131.854 179.44 132.47C179.255 133.075 178.952 133.642 178.532 134.169C178.122 134.687 177.58 135.121 176.906 135.473C176.242 135.824 175.432 136 174.475 136H167.604C167.077 136 166.506 135.907 165.891 135.722C165.285 135.536 164.719 135.238 164.191 134.828C163.674 134.408 163.239 133.866 162.888 133.202C162.536 132.528 162.36 131.713 162.36 130.756C162.36 130.229 162.453 129.657 162.639 129.042C162.824 128.427 163.122 127.86 163.532 127.343C163.952 126.815 164.494 126.376 165.158 126.024C165.832 125.673 166.647 125.497 167.604 125.497H174.475V129.13H167.604C167.087 129.13 166.687 129.291 166.403 129.613C166.12 129.926 165.979 130.316 165.979 130.785C165.979 131.283 166.14 131.674 166.462 131.957C166.794 132.23 167.185 132.367 167.634 132.367H174.475C174.992 132.367 175.393 132.211 175.676 131.898C175.959 131.586 176.101 131.195 176.101 130.727V125.409C176.101 124.911 175.944 124.516 175.632 124.223C175.329 123.93 174.943 123.783 174.475 123.783H166.11V120.165H174.475C175.002 120.165 175.568 120.258 176.174 120.443C176.789 120.629 177.355 120.932 177.873 121.352C178.4 121.762 178.84 122.304 179.191 122.978C179.543 123.642 179.719 124.452 179.719 125.409V130.756ZM197.312 123.974H190.661V136H186.809V123.974H181.857V120.165H186.809V114.994H190.661V120.165H197.312V123.974ZM226.799 137.523C226.799 138.178 226.716 138.764 226.55 139.281C226.384 139.809 226.164 140.268 225.891 140.658C225.617 141.059 225.3 141.396 224.938 141.669C224.577 141.952 224.196 142.182 223.796 142.357C223.405 142.533 223.01 142.66 222.609 142.738C222.209 142.826 221.828 142.87 221.467 142.87H214.597V139.062H221.467C221.975 139.062 222.355 138.93 222.609 138.666C222.863 138.402 222.99 138.021 222.99 137.523V120.165H226.799V137.523ZM221.467 136H214.597C214.05 136 213.464 135.907 212.839 135.722C212.224 135.536 211.647 135.233 211.11 134.813C210.573 134.384 210.129 133.832 209.777 133.158C209.426 132.475 209.25 131.64 209.25 130.653V120.165H213.059V130.653C213.059 131.151 213.19 131.532 213.454 131.796C213.718 132.06 214.108 132.191 214.626 132.191H221.467V136ZM247.658 130.653C247.658 131.308 247.575 131.898 247.409 132.426C247.243 132.943 247.023 133.402 246.75 133.803C246.477 134.193 246.159 134.53 245.798 134.813C245.437 135.087 245.056 135.312 244.655 135.487C244.265 135.663 243.864 135.795 243.454 135.883C243.054 135.961 242.673 136 242.312 136H235.441C234.914 136 234.338 135.907 233.713 135.722C233.088 135.536 232.507 135.233 231.97 134.813C231.442 134.384 230.998 133.832 230.637 133.158C230.285 132.475 230.109 131.64 230.109 130.653V125.497C230.109 124.521 230.285 123.695 230.637 123.021C230.998 122.338 231.442 121.786 231.97 121.366C232.507 120.937 233.088 120.629 233.713 120.443C234.338 120.258 234.914 120.165 235.441 120.165H242.312C243.288 120.165 244.118 120.341 244.802 120.692C245.485 121.044 246.037 121.488 246.457 122.025C246.877 122.553 247.18 123.129 247.365 123.754C247.561 124.379 247.658 124.96 247.658 125.497V130.653ZM243.85 125.526C243.85 124.999 243.718 124.608 243.454 124.354C243.19 124.101 242.81 123.974 242.312 123.974H235.471C234.963 123.974 234.577 124.105 234.313 124.369C234.05 124.623 233.918 124.999 233.918 125.497V130.653C233.918 131.151 234.05 131.532 234.313 131.796C234.577 132.06 234.963 132.191 235.471 132.191H242.312C242.829 132.191 243.215 132.06 243.469 131.796C243.723 131.532 243.85 131.151 243.85 130.653V125.526ZM268.225 134.081C268.225 134.354 268.176 134.608 268.078 134.843C267.98 135.077 267.844 135.282 267.668 135.458C267.502 135.624 267.302 135.756 267.067 135.854C266.843 135.951 266.599 136 266.335 136H257.722C257.253 136 256.75 135.946 256.213 135.839C255.686 135.731 255.163 135.561 254.646 135.326C254.128 135.082 253.625 134.779 253.137 134.418C252.658 134.047 252.238 133.603 251.877 133.085C251.516 132.558 251.223 131.952 250.998 131.269C250.783 130.585 250.676 129.813 250.676 128.954V120.165H254.484V128.954C254.484 129.452 254.567 129.901 254.733 130.302C254.909 130.692 255.144 131.029 255.437 131.312C255.729 131.596 256.071 131.815 256.462 131.972C256.862 132.118 257.292 132.191 257.751 132.191H264.416V120.165H268.225V134.081ZM285.656 123.974H277.087C276.569 123.974 276.179 124.105 275.915 124.369C275.651 124.623 275.52 124.999 275.52 125.497V136H271.711V125.497C271.711 124.843 271.794 124.257 271.96 123.739C272.126 123.222 272.346 122.768 272.619 122.377C272.902 121.977 273.225 121.64 273.586 121.366C273.947 121.083 274.323 120.854 274.714 120.678C275.114 120.502 275.515 120.375 275.915 120.297C276.325 120.209 276.706 120.165 277.058 120.165H285.656V123.974ZM315.07 130.653C315.07 131.308 314.987 131.898 314.821 132.426C314.655 132.943 314.436 133.402 314.162 133.803C313.889 134.193 313.571 134.53 313.21 134.813C312.849 135.087 312.468 135.312 312.067 135.487C311.677 135.663 311.276 135.795 310.866 135.883C310.466 135.961 310.085 136 309.724 136H302.854C302.199 136 301.613 135.917 301.096 135.751C300.578 135.585 300.119 135.365 299.719 135.092C299.328 134.809 298.991 134.486 298.708 134.125C298.435 133.764 298.21 133.388 298.034 132.997C297.858 132.597 297.727 132.196 297.639 131.796C297.561 131.386 297.521 131.005 297.521 130.653V125.497C297.521 124.521 297.697 123.695 298.049 123.021C298.41 122.338 298.854 121.786 299.382 121.366C299.919 120.937 300.5 120.629 301.125 120.443C301.75 120.258 302.326 120.165 302.854 120.165H309.724V123.974H302.883C302.375 123.974 301.989 124.105 301.726 124.369C301.462 124.623 301.33 124.999 301.33 125.497V130.624C301.33 131.142 301.457 131.532 301.711 131.796C301.975 132.06 302.355 132.191 302.854 132.191H309.724C310.241 132.191 310.627 132.06 310.881 131.796C311.135 131.532 311.262 131.151 311.262 130.653V113.471H315.07V130.653ZM335.93 130.653C335.93 131.308 335.847 131.898 335.681 132.426C335.515 132.943 335.295 133.402 335.021 133.803C334.748 134.193 334.431 134.53 334.069 134.813C333.708 135.087 333.327 135.312 332.927 135.487C332.536 135.663 332.136 135.795 331.726 135.883C331.325 135.961 330.944 136 330.583 136H323.713C323.186 136 322.609 135.907 321.984 135.722C321.359 135.536 320.778 135.233 320.241 134.813C319.714 134.384 319.27 133.832 318.908 133.158C318.557 132.475 318.381 131.64 318.381 130.653V125.497C318.381 124.521 318.557 123.695 318.908 123.021C319.27 122.338 319.714 121.786 320.241 121.366C320.778 120.937 321.359 120.629 321.984 120.443C322.609 120.258 323.186 120.165 323.713 120.165H330.583C331.56 120.165 332.39 120.341 333.073 120.692C333.757 121.044 334.309 121.488 334.729 122.025C335.148 122.553 335.451 123.129 335.637 123.754C335.832 124.379 335.93 124.96 335.93 125.497V130.653ZM332.121 125.526C332.121 124.999 331.989 124.608 331.726 124.354C331.462 124.101 331.081 123.974 330.583 123.974H323.742C323.234 123.974 322.849 124.105 322.585 124.369C322.321 124.623 322.189 124.999 322.189 125.497V130.653C322.189 131.151 322.321 131.532 322.585 131.796C322.849 132.06 323.234 132.191 323.742 132.191H330.583C331.101 132.191 331.486 132.06 331.74 131.796C331.994 131.532 332.121 131.151 332.121 130.653V125.526ZM356.408 130.653C356.408 131.308 356.325 131.898 356.159 132.426C355.993 132.943 355.773 133.402 355.5 133.803C355.227 134.193 354.909 134.53 354.548 134.813C354.187 135.087 353.806 135.312 353.405 135.487C353.015 135.663 352.614 135.795 352.204 135.883C351.804 135.961 351.423 136 351.062 136H344.191C343.664 136 343.088 135.907 342.463 135.722C341.838 135.536 341.257 135.233 340.72 134.813C340.192 134.384 339.748 133.832 339.387 133.158C339.035 132.475 338.859 131.64 338.859 130.653V125.497C338.859 124.521 339.035 123.695 339.387 123.021C339.748 122.338 340.192 121.786 340.72 121.366C341.257 120.937 341.838 120.629 342.463 120.443C343.088 120.258 343.664 120.165 344.191 120.165H351.062C352.038 120.165 352.868 120.341 353.552 120.692C354.235 121.044 354.787 121.488 355.207 122.025C355.627 122.553 355.93 123.129 356.115 123.754C356.311 124.379 356.408 124.96 356.408 125.497V130.653ZM352.6 125.526C352.6 124.999 352.468 124.608 352.204 124.354C351.94 124.101 351.56 123.974 351.062 123.974H344.221C343.713 123.974 343.327 124.105 343.063 124.369C342.8 124.623 342.668 124.999 342.668 125.497V130.653C342.668 131.151 342.8 131.532 343.063 131.796C343.327 132.06 343.713 132.191 344.221 132.191H351.062C351.579 132.191 351.965 132.06 352.219 131.796C352.473 131.532 352.6 131.151 352.6 130.653V125.526ZM373.518 123.974H364.948C364.431 123.974 364.04 124.105 363.776 124.369C363.513 124.623 363.381 124.999 363.381 125.497V136H359.572V125.497C359.572 124.843 359.655 124.257 359.821 123.739C359.987 123.222 360.207 122.768 360.48 122.377C360.764 121.977 361.086 121.64 361.447 121.366C361.809 121.083 362.185 120.854 362.575 120.678C362.976 120.502 363.376 120.375 363.776 120.297C364.187 120.209 364.567 120.165 364.919 120.165H373.518V123.974Z" fill="#CB2095"/>
</svg>